<svg id="visual" viewBox="0 0 1920 1080" width="1920" height="1080" xmlns="http://www.w3.org/2000/svg" xmlns:xlink="http://www.w3.org/1999/xlink" version="1.1"><rect x="0" y="0" width="1920" height="1080" fill="#001220"></rect><path d="M0 655L40 676.8C80 698.7 160 742.3 240 763.5C320 784.7 400 783.3 480 768C560 752.7 640 723.3 720 724.8C800 726.3 880 758.7 960 759.7C1040 760.7 1120 730.3 1200 707C1280 683.7 1360 667.3 1440 679.3C1520 691.3 1600 731.7 1680 730.5C1760 729.3 1840 686.7 1880 665.3L1920 644L1920 1081L1880 1081C1840 1081 1760 1081 1680 1081C1600 1081 1520 1081 1440 1081C1360 1081 1280 1081 1200 1081C1120 1081 1040 1081 960 1081C880 1081 800 1081 720 1081C640 1081 560 1081 480 1081C400 1081 320 1081 240 1081C160 1081 80 1081 40 1081L0 1081Z" fill="#211d62"></path><path d="M0 815L40 793.2C80 771.3 160 727.7 240 718.7C320 709.7 400 735.3 480 736.7C560 738 640 715 720 707.8C800 700.7 880 709.3 960 731.3C1040 753.3 1120 788.7 1200 800.7C1280 812.7 1360 801.3 1440 802.2C1520 803 1600 816 1680 812.2C1760 808.3 1840 787.7 1880 777.3L1920 767L1920 1081L1880 1081C1840 1081 1760 1081 1680 1081C1600 1081 1520 1081 1440 1081C1360 1081 1280 1081 1200 1081C1120 1081 1040 1081 960 1081C880 1081 800 1081 720 1081C640 1081 560 1081 480 1081C400 1081 320 1081 240 1081C160 1081 80 1081 40 1081L0 1081Z" fill="#313171"></path><path d="M0 747L40 758.2C80 769.3 160 791.7 240 792.5C320 793.3 400 772.7 480 768.7C560 764.7 640 777.3 720 798C800 818.7 880 847.3 960 841.2C1040 835 1120 794 1200 789.3C1280 784.7 1360 816.3 1440 822C1520 827.7 1600 807.3 1680 800.3C1760 793.3 1840 799.7 1880 802.8L1920 806L1920 1081L1880 1081C1840 1081 1760 1081 1680 1081C1600 1081 1520 1081 1440 1081C1360 1081 1280 1081 1200 1081C1120 1081 1040 1081 960 1081C880 1081 800 1081 720 1081C640 1081 560 1081 480 1081C400 1081 320 1081 240 1081C160 1081 80 1081 40 1081L0 1081Z" fill="#414580"></path><path d="M0 852L40 846.8C80 841.7 160 831.3 240 823.5C320 815.7 400 810.3 480 816.7C560 823 640 841 720 842.3C800 843.7 880 828.3 960 828.3C1040 828.3 1120 843.7 1200 852.8C1280 862 1360 865 1440 859.8C1520 854.7 1600 841.3 1680 846.5C1760 851.7 1840 875.3 1880 887.2L1920 899L1920 1081L1880 1081C1840 1081 1760 1081 1680 1081C1600 1081 1520 1081 1440 1081C1360 1081 1280 1081 1200 1081C1120 1081 1040 1081 960 1081C880 1081 800 1081 720 1081C640 1081 560 1081 480 1081C400 1081 320 1081 240 1081C160 1081 80 1081 40 1081L0 1081Z" fill="#535a8e"></path><path d="M0 880L40 881.2C80 882.3 160 884.7 240 893.3C320 902 400 917 480 922.7C560 928.3 640 924.7 720 921.2C800 917.7 880 914.3 960 919.2C1040 924 1120 937 1200 933.5C1280 930 1360 910 1440 899C1520 888 1600 886 1680 885.3C1760 884.7 1840 885.3 1880 885.7L1920 886L1920 1081L1880 1081C1840 1081 1760 1081 1680 1081C1600 1081 1520 1081 1440 1081C1360 1081 1280 1081 1200 1081C1120 1081 1040 1081 960 1081C880 1081 800 1081 720 1081C640 1081 560 1081 480 1081C400 1081 320 1081 240 1081C160 1081 80 1081 40 1081L0 1081Z" fill="#666f9c"></path><path d="M0 943L40 951C80 959 160 975 240 973C320 971 400 951 480 948.5C560 946 640 961 720 962.8C800 964.7 880 953.3 960 952.3C1040 951.3 1120 960.7 1200 957C1280 953.3 1360 936.7 1440 930.3C1520 924 1600 928 1680 931C1760 934 1840 936 1880 937L1920 938L1920 1081L1880 1081C1840 1081 1760 1081 1680 1081C1600 1081 1520 1081 1440 1081C1360 1081 1280 1081 1200 1081C1120 1081 1040 1081 960 1081C880 1081 800 1081 720 1081C640 1081 560 1081 480 1081C400 1081 320 1081 240 1081C160 1081 80 1081 40 1081L0 1081Z" fill="#7a84aa"></path><path d="M0 983L40 984.7C80 986.3 160 989.7 240 989.2C320 988.7 400 984.3 480 990.3C560 996.3 640 1012.7 720 1015C800 1017.3 880 1005.7 960 1006.3C1040 1007 1120 1020 1200 1021.3C1280 1022.7 1360 1012.3 1440 1013.3C1520 1014.3 1600 1026.7 1680 1025.2C1760 1023.7 1840 1008.3 1880 1000.7L1920 993L1920 1081L1880 1081C1840 1081 1760 1081 1680 1081C1600 1081 1520 1081 1440 1081C1360 1081 1280 1081 1200 1081C1120 1081 1040 1081 960 1081C880 1081 800 1081 720 1081C640 1081 560 1081 480 1081C400 1081 320 1081 240 1081C160 1081 80 1081 40 1081L0 1081Z" fill="#8f99b7"></path></svg>